<?xml version="1.0" standalone="no"?>
<!DOCTYPE svg PUBLIC "-//W3C//DTD SVG 20010904//EN"
 "http://www.w3.org/TR/2001/REC-SVG-20010904/DTD/svg10.dtd">
<svg version="1.0" xmlns="http://www.w3.org/2000/svg"
 width="214.000000pt" height="214.000000pt" viewBox="0 0 214.000000 214.000000"
 preserveAspectRatio="xMidYMid meet">
<metadata>
Created by potrace 1.11, written by Peter Selinger 2001-2013
</metadata>
<g transform="translate(0.000000,214.000000) scale(0.100000,-0.100000)"
fill="#000000" stroke="none">
<path d="M383 1959 l-213 -122 0 -251 0 -252 207 -119 c114 -66 213 -121 219
-123 10 -3 398 213 432 240 9 8 12 71 12 253 0 182 -3 245 -12 253 -19 15
-419 242 -427 242 -3 0 -102 -55 -218 -121z m421 -188 l99 -100 -38 -43 c-22
-24 -74 -78 -116 -122 -64 -64 -82 -77 -101 -73 -93 22 -91 23 -136 -37 -24
-31 -56 -63 -72 -71 -61 -32 -110 -10 -110 48 0 42 24 76 88 128 29 24 51 48
48 55 -2 6 -8 32 -11 58 l-7 47 112 114 c88 89 116 112 129 105 9 -5 61 -54
115 -109z"/>
<path d="M610 1793 l-52 -56 96 -96 96 -96 60 60 c46 46 57 62 48 72 -9 11
-16 9 -38 -12 -14 -14 -29 -25 -33 -25 -14 0 -6 24 15 47 16 17 19 26 11 34
-8 8 -21 0 -48 -30 -21 -23 -41 -41 -46 -41 -19 0 -7 26 28 62 29 29 34 41 25
50 -9 9 -19 5 -42 -17 -35 -33 -42 -14 -8 22 17 18 19 26 10 35 -9 9 -21 4
-50 -25 -61 -59 -75 -46 -17 17 34 37 37 56 10 56 -7 0 -36 -25 -65 -57z"/>
<path d="M523 1701 c-10 -16 1 -30 83 -112 87 -86 95 -92 110 -77 15 15 10 23
-76 112 -51 53 -96 96 -99 96 -3 0 -11 -8 -18 -19z"/>
<path d="M482 1658 c-7 -9 -8 -26 -2 -53 16 -67 12 -78 -42 -120 -74 -58 -102
-110 -74 -138 31 -31 70 -6 162 105 20 24 24 25 78 15 96 -18 94 -1 -15 109
-76 76 -98 93 -107 82z m-57 -264 c0 -10 -8 -20 -17 -22 -18 -3 -26 27 -11 42
12 11 28 0 28 -20z"/>
<path d="M1293 1957 l-213 -122 0 -250 0 -250 214 -122 c118 -68 218 -123 222
-123 4 0 103 55 220 122 l214 122 0 251 0 251 -213 122 c-117 67 -218 122
-223 122 -5 -1 -105 -56 -221 -123z m445 -110 c74 -73 82 -91 62 -141 -14 -38
-35 -32 -99 29 -51 49 -60 54 -71 40 -11 -14 -5 -24 43 -73 32 -32 57 -63 57
-69 0 -20 -40 -35 -79 -30 -35 4 -40 0 -187 -144 -161 -159 -182 -171 -224
-129 -38 38 -27 58 105 190 80 80 121 128 115 134 -6 6 -18 2 -33 -12 -23 -22
-47 -29 -47 -14 0 5 11 19 25 32 17 16 22 27 15 34 -20 20 -9 40 58 105 115
111 142 132 166 125 11 -3 54 -38 94 -77z"/>
<path d="M1560 1845 l-54 -55 27 -27 27 -27 45 44 45 44 59 -58 c59 -59 81
-65 81 -22 0 28 -129 156 -157 156 -10 0 -43 -25 -73 -55z"/>
<path d="M1457 1742 l-27 -28 30 -29 c16 -16 30 -33 30 -39 0 -6 -57 -68 -126
-137 -102 -102 -125 -130 -120 -147 15 -45 49 -36 114 28 23 23 31 38 26 52
-5 17 -2 19 14 14 22 -7 39 8 22 19 -6 4 -8 11 -4 16 4 6 11 6 19 -1 16 -13
28 1 19 25 -5 13 -2 15 18 10 20 -5 33 3 76 49 29 30 52 63 52 73 0 16 -96
123 -111 123 -3 0 -17 -13 -32 -28z m51 -36 c3 -12 -1 -17 -10 -14 -7 3 -15
13 -16 22 -3 12 1 17 10 14 7 -3 15 -13 16 -22z"/>
<path d="M1585 1729 c-4 -6 2 -21 14 -33 12 -12 21 -29 21 -37 0 -22 21 -39
46 -39 41 0 37 21 -12 71 -51 51 -59 56 -69 38z"/>
<path d="M389 938 l-214 -123 0 -250 0 -250 214 -123 c117 -67 219 -122 225
-121 6 0 105 55 221 122 l210 122 0 250 0 250 -214 122 c-117 68 -216 123
-220 123 -4 0 -104 -55 -222 -122z m478 -120 c18 -18 33 -37 33 -42 0 -18
-254 -266 -272 -266 -20 0 -23 -11 -7 -27 14 -14 -16 -43 -46 -43 -18 0 -36
-18 -77 -77 -51 -74 -55 -78 -95 -81 -52 -4 -83 22 -83 71 1 42 12 56 93 106
37 24 68 48 69 54 0 7 2 17 2 23 3 25 29 44 52 38 19 -5 24 -2 24 12 0 22 238
264 259 264 8 0 30 -14 48 -32z"/>
<path d="M810 815 c0 -14 31 -65 40 -65 21 0 21 23 -1 46 -21 22 -39 31 -39
19z"/>
<path d="M772 777 c-8 -10 -6 -22 9 -46 30 -50 53 -22 27 34 -13 28 -21 31
-36 12z"/>
<path d="M732 737 c-15 -18 3 -77 23 -77 24 0 26 18 7 55 -15 31 -20 34 -30
22z"/>
<path d="M683 689 c-9 -9 -7 -20 5 -45 26 -56 52 -38 31 21 -14 38 -19 41 -36
24z"/>
<path d="M630 635 c0 -24 22 -65 36 -65 22 0 25 18 9 50 -16 31 -45 41 -45 15z"/>
<path d="M587 603 c-3 -5 -8 -23 -12 -41 -7 -32 -6 -32 25 -30 40 3 44 11 25
48 -15 29 -29 38 -38 23z"/>
<path d="M505 518 c-8 -24 -28 -45 -85 -83 -81 -54 -96 -81 -64 -116 9 -10 30
-19 45 -19 23 0 36 12 81 77 31 46 61 79 73 81 48 8 49 12 10 52 -22 22 -42
40 -45 40 -3 0 -10 -14 -15 -32z"/>
<path d="M1303 937 l-213 -122 0 -251 0 -250 216 -124 217 -123 61 33 c33 19
88 50 121 70 33 20 104 61 157 90 l98 55 0 250 0 250 -214 123 c-118 67 -218
122 -223 122 -4 0 -104 -55 -220 -123z m476 -121 c21 -23 22 -24 5 -60 -10
-20 -23 -36 -30 -36 -16 0 -114 -89 -114 -103 0 -6 7 -19 17 -29 15 -17 15
-19 -2 -38 -10 -11 -26 -20 -36 -20 -10 0 -28 -18 -42 -42 -14 -24 -61 -78
-105 -120 -70 -69 -84 -78 -117 -78 -29 0 -45 8 -71 34 -38 38 -44 78 -20 124
20 37 121 133 178 168 34 20 48 35 48 51 0 32 36 49 59 29 10 -9 22 -16 28
-16 13 0 103 95 103 109 0 8 56 48 71 50 3 1 16 -10 28 -23z"/>
<path d="M1723 798 c-13 -6 -23 -16 -23 -22 0 -7 -25 -36 -55 -66 -43 -42 -52
-57 -43 -67 9 -12 22 -4 67 41 31 31 61 56 67 56 14 0 36 48 29 61 -7 11 -14
11 -42 -3z"/>
<path d="M1517 673 c-4 -3 -7 -16 -7 -27 0 -15 -15 -29 -48 -48 -26 -15 -72
-52 -101 -82 l-55 -56 59 -55 59 -56 53 53 c30 29 66 74 81 100 19 35 33 48
49 48 38 0 36 19 -4 58 -65 61 -79 72 -86 65z m-17 -141 c0 -14 -89 -96 -97
-89 -4 4 13 28 37 52 42 43 60 54 60 37z"/>
<path d="M1275 420 c-8 -24 2 -59 23 -82 15 -18 81 -25 96 -11 7 7 -92 113
-105 113 -4 0 -11 -9 -14 -20z"/>
</g>
</svg>
